Normalized EMG Linear Envelopes
nRows=32
nColumns=17

endheader
time	        VM	        VL	        RF	       GRA	        TA	   ADDLONG	   SEMIMEM	      BFLH	        GM	        GL	       TFL	   GLUTMAX	   GLUTMED	      PIRI	    OBTINT	        QF	
2.1785	  0.000000	  0.000000	  0.028191	  0.189245	  0.088351	  0.411678	  0.046823	  0.032002	  0.099038	  0.073694	  0.231785	  0.001321	  0.292906	  0.342404	  0.432371	  0.071173	
2.179	  0.000000	  0.000000	  0.028493	  0.191812	  0.089045	  0.414832	  0.047042	  0.031664	  0.096016	  0.071003	  0.234404	  0.001615	  0.292191	  0.340902	  0.428949	  0.071536	
2.1795	  0.000000	  0.000000	  0.028800	  0.194381	  0.089786	  0.417915	  0.047257	  0.031338	  0.093055	  0.068375	  0.237048	  0.001915	  0.291406	  0.339375	  0.425576	  0.071878	
2.18	  0.000000	  0.000000	  0.029112	  0.196953	  0.090575	  0.420927	  0.047471	  0.031025	  0.090155	  0.065809	  0.239715	  0.002219	  0.290553	  0.337826	  0.422254	  0.072201	
2.1805	  0.000000	  0.000000	  0.029427	  0.199528	  0.091411	  0.423864	  0.047681	  0.030725	  0.087316	  0.063304	  0.242405	  0.002529	  0.289631	  0.336255	  0.418986	  0.072503	
2.181	  0.000000	  0.000000	  0.029746	  0.202103	  0.092295	  0.426725	  0.047888	  0.030436	  0.084536	  0.060860	  0.245117	  0.002842	  0.288642	  0.334664	  0.415773	  0.072784	
2.1815	  0.000000	  0.000000	  0.030069	  0.204680	  0.093225	  0.429508	  0.048093	  0.030160	  0.081816	  0.058476	  0.247852	  0.003160	  0.287587	  0.333053	  0.412617	  0.073043	
2.182	  0.000000	  0.000000	  0.030396	  0.207258	  0.094204	  0.432212	  0.048294	  0.029894	  0.079154	  0.056153	  0.250607	  0.003482	  0.286467	  0.331424	  0.409520	  0.073280	
2.1825	  0.000000	  0.000000	  0.030726	  0.209836	  0.095229	  0.434834	  0.048492	  0.029640	  0.076551	  0.053889	  0.253382	  0.003808	  0.285283	  0.329778	  0.406482	  0.073495	
2.183	  0.000000	  0.000000	  0.031059	  0.212414	  0.096302	  0.437373	  0.048687	  0.029398	  0.074006	  0.051683	  0.256176	  0.004137	  0.284037	  0.328115	  0.403506	  0.073687	
2.1835	  0.000000	  0.000000	  0.031395	  0.214992	  0.097422	  0.439828	  0.048879	  0.029165	  0.071518	  0.049537	  0.258988	  0.004469	  0.282730	  0.326437	  0.400593	  0.073857	
2.184	  0.000000	  0.000000	  0.031734	  0.217568	  0.098589	  0.442195	  0.049067	  0.028943	  0.069087	  0.047448	  0.261818	  0.004804	  0.281363	  0.324746	  0.397745	  0.074004	
2.1845	  0.000000	  0.000000	  0.032076	  0.220143	  0.099803	  0.444474	  0.049251	  0.028731	  0.066711	  0.045416	  0.264665	  0.005142	  0.279939	  0.323043	  0.394961	  0.074128	
2.185	  0.000000	  0.000000	  0.032420	  0.222716	  0.101064	  0.446662	  0.049432	  0.028529	  0.064392	  0.043441	  0.267527	  0.005482	  0.278459	  0.321328	  0.392244	  0.074229	
2.1855	  0.000000	  0.000000	  0.032767	  0.225287	  0.102371	  0.448758	  0.049608	  0.028337	  0.062127	  0.041523	  0.270404	  0.005824	  0.276927	  0.319604	  0.389593	  0.074308	
2.186	  0.000000	  0.000000	  0.033116	  0.227854	  0.103724	  0.450758	  0.049781	  0.028153	  0.059916	  0.039660	  0.273295	  0.006168	  0.275343	  0.317872	  0.387011	  0.074364	
2.1865	  0.000000	  0.000000	  0.033466	  0.230418	  0.105123	  0.452661	  0.049949	  0.027979	  0.057759	  0.037852	  0.276199	  0.006514	  0.273711	  0.316133	  0.384499	  0.074398	
2.187	  0.000000	  0.000000	  0.033819	  0.232977	  0.106567	  0.454465	  0.050112	  0.027813	  0.055655	  0.036099	  0.279114	  0.006862	  0.272033	  0.314390	  0.382056	  0.074410	
2.1875	  0.000000	  0.000000	  0.034173	  0.235531	  0.108057	  0.456167	  0.050272	  0.027655	  0.053604	  0.034399	  0.282040	  0.007210	  0.270312	  0.312643	  0.379684	  0.074399	
2.188	  0.000000	  0.000000	  0.034528	  0.238079	  0.109591	  0.457765	  0.050426	  0.027505	  0.051604	  0.032753	  0.284975	  0.007560	  0.268549	  0.310894	  0.377385	  0.074367	
2.1885	  0.000000	  0.000000	  0.034884	  0.240621	  0.111171	  0.459258	  0.050576	  0.027363	  0.049655	  0.031159	  0.287919	  0.007910	  0.266748	  0.309145	  0.375160	  0.074313	
2.189	  0.000000	  0.000000	  0.035242	  0.243155	  0.112794	  0.460644	  0.050721	  0.027229	  0.047756	  0.029617	  0.290870	  0.008261	  0.264910	  0.307398	  0.373009	  0.074238	
2.1895	  0.000000	  0.000000	  0.035600	  0.245682	  0.114460	  0.461921	  0.050861	  0.027101	  0.045908	  0.028126	  0.293827	  0.008613	  0.263037	  0.305653	  0.370933	  0.074142	
2.19	  0.000000	  0.000000	  0.035959	  0.248199	  0.116170	  0.463088	  0.050996	  0.026980	  0.044108	  0.026687	  0.296788	  0.008965	  0.261131	  0.303912	  0.368935	  0.074025	
2.1905	  0.000000	  0.000000	  0.036319	  0.250707	  0.117922	  0.464143	  0.051127	  0.026865	  0.042357	  0.025297	  0.299752	  0.009317	  0.259195	  0.302176	  0.367014	  0.073888	
2.191	  0.000208	  0.000000	  0.036678	  0.253205	  0.119716	  0.465085	  0.051252	  0.026757	  0.040654	  0.023956	  0.302717	  0.009668	  0.257232	  0.300447	  0.365172	  0.073732	
2.1915	  0.000526	  0.000000	  0.037038	  0.255690	  0.121551	  0.465913	  0.051372	  0.026654	  0.038999	  0.022665	  0.305683	  0.010020	  0.255242	  0.298726	  0.363409	  0.073556	
2.192	  0.000845	  0.000000	  0.037398	  0.258163	  0.123427	  0.466624	  0.051486	  0.026557	  0.037391	  0.021421	  0.308647	  0.010371	  0.253228	  0.297013	  0.361726	  0.073361	
2.1925	  0.001164	  0.000000	  0.037758	  0.260623	  0.125343	  0.467218	  0.051595	  0.026465	  0.035829	  0.020225	  0.311608	  0.010721	  0.251193	  0.295311	  0.360125	  0.073148	
2.193	  0.001483	  0.000000	  0.038117	  0.263068	  0.127298	  0.467694	  0.051699	  0.026377	  0.034313	  0.019075	  0.314565	  0.011070	  0.249138	  0.293620	  0.358605	  0.072917	
2.1935	  0.001802	  0.000000	  0.038476	  0.265497	  0.129292	  0.468053	  0.051797	  0.026295	  0.032842	  0.017971	  0.317514	  0.011419	  0.247066	  0.291941	  0.357167	  0.072668	
2.194	  0.002120	  0.000000	  0.038834	  0.267911	  0.131324	  0.468294	  0.051890	  0.026216	  0.031416	  0.016913	  0.320456	  0.011766	  0.244978	  0.290275	  0.355812	  0.072402	
